<svg width="187" height="56" viewBox="0 0 187 56" fill="none" xmlns="http://www.w3.org/2000/svg">
<g clip-path="url(#clip0_110_14330)">
<path d="M0.0371094 55.9444H186.985V0H0.0371094V55.9444Z" fill="#9B99AB"/>
<path d="M135.223 55.9942C134.341 55.6469 131.895 54.4801 131.581 52.1673L127.033 56.0011L116.449 55.9942C115.401 55.7233 113.494 54.8482 112.896 52.0493L108.52 55.9942L99.282 56.0081L95.3401 44.1594L90.4556 56.0011H81.6068L83.2748 52.0284C79.7218 54.7649 78.6223 55.7164 78.3006 56.015L70.7832 56.0081C67.9558 54.7996 67.7538 52.0006 67.7538 52.0006C64.0886 54.7788 62.9517 55.7094 62.6076 56.0081L56.0476 56.0011C53.6316 54.9524 52.8686 52.1187 52.8686 52.1187C49.2034 54.619 47.0716 56.0011 47.0716 56.0011H35.156L42.2246 39.1032H35.9264L29.0972 55.9942H20.3082L28.3716 35.1583H22.612L14.0325 55.9942H5.236L15.334 31.2064H0V24.0527H26.8682L25.3572 28.2477H39.9058L38.2602 32.5607H52.936L46.204 49.7017H53.0631L58.4188 37.3738C58.4188 37.3738 60.4758 32.5607 65.2854 32.5607H83.8134L77.231 49.8268H84.0976L94.6594 24.0527H103.022L96.5743 41.0687L106.186 32.5538H116.209L104.129 43.5274L105.909 49.9379L113.329 49.8754L120.735 32.4218H129.09L122.373 49.8268H131.985L136.772 38.11H131.139L133.346 32.4357H138.694L142.397 24.0527H151.036L147.745 32.1926H152.831L150.774 37.992H145.277L140.751 49.7087H150.363L154.888 38.4851C154.888 38.4851 156.818 32.6927 162.443 32.5677H180.545L173.835 49.7017H187V55.9942H169.437C169.437 55.9942 165.323 55.5011 164.627 52.0493L160.364 55.9942H154.342C154.342 55.9942 150.49 55.5011 149.944 52.0493L145.553 55.9942H135.223ZM164.71 49.9518L169.362 39.1032H163.453L158.8 49.9518H164.71ZM68.1204 49.9518L72.7804 39.1032H66.8936L62.2186 49.9518H68.1204Z" fill="white"/>
<path d="M121.4 30.4213L123.869 24.0108H132.246L129.778 30.4213H121.4ZM177.239 20.566H175.892V19.3853H177.351C177.635 19.3853 178.121 19.4269 178.121 19.9687C178.121 20.4826 177.672 20.566 177.239 20.566ZM178.682 22.0314L178.645 21.4063C178.622 20.9271 178.383 20.8368 178.144 20.7535C178.405 20.6215 178.72 20.434 178.72 19.92C178.72 19.1838 178.009 18.9824 177.298 18.9824H175.316V22.462H175.892V20.9757H177.298C178.009 20.9757 178.084 21.3091 178.084 21.6008C178.084 21.7328 178.106 22.2537 178.181 22.469H178.907V22.3926C178.72 22.2953 178.682 22.2259 178.682 22.0314Z" fill="white"/>
<path d="M176.977 23.6423C176.139 23.6423 175.354 23.3367 174.756 22.788C174.157 22.2324 173.821 21.5031 173.821 20.7183C173.821 19.9335 174.157 19.1973 174.756 18.6486C175.354 18.093 176.139 17.7943 176.977 17.7943C177.815 17.7943 178.623 18.0999 179.206 18.6486C179.805 19.2042 180.141 19.9335 180.141 20.7183C180.134 22.3296 178.72 23.6423 176.977 23.6423ZM179.461 18.4124C178.787 17.7943 177.912 17.4609 176.97 17.4609C175.047 17.4609 173.477 18.9195 173.477 20.7113C173.477 21.5795 173.828 22.399 174.509 23.0102C175.16 23.6214 176.05 23.9617 176.977 23.9617C177.912 23.9617 178.787 23.6214 179.461 23.0102C180.119 22.3921 180.47 21.5795 180.47 20.7113C180.47 19.8432 180.119 19.0236 179.461 18.4124Z" fill="white"/>
</g>
<defs>
<clipPath id="clip0_110_14330">
<rect width="187" height="56" fill="white"/>
</clipPath>
</defs>
</svg>
