<svg width="52" height="52" viewBox="0 0 52 52" fill="none" xmlns="http://www.w3.org/2000/svg">
<rect width="52" height="52" rx="10" fill="#E4FAE5"/>
<path d="M26.0003 38L25.8669 37.7999C24.9407 36.4106 24.4776 35.716 23.8658 35.2131C23.3241 34.7679 22.7 34.4339 22.0291 34.2301C21.2713 34 20.4365 34 18.7668 34H16.9337C15.4402 34 14.6934 34 14.123 33.7094C13.6213 33.4537 13.2133 33.0457 12.9576 32.544C12.667 31.9735 12.667 31.2268 12.667 29.7333V18.2667C12.667 16.7732 12.667 16.0265 12.9576 15.456C13.2133 14.9543 13.6213 14.5463 14.123 14.2906C14.6934 14 15.4402 14 16.9337 14H17.467C20.4539 14 21.9474 14 23.0883 14.5813C24.0918 15.0926 24.9077 15.9085 25.419 16.9121C26.0003 18.0529 26.0003 19.5464 26.0003 22.5333M26.0003 38V22.5333M26.0003 38L26.1337 37.7999C27.0599 36.4106 27.523 35.716 28.1349 35.2131C28.6765 34.7679 29.3006 34.4339 29.9715 34.2301C30.7293 34 31.5642 34 33.2339 34H35.067C36.5605 34 37.3072 34 37.8776 33.7094C38.3794 33.4537 38.7873 33.0457 39.043 32.544C39.3337 31.9735 39.3337 31.2268 39.3337 29.7333V18.2667C39.3337 16.7732 39.3337 16.0265 39.043 15.456C38.7873 14.9543 38.3794 14.5463 37.8776 14.2906C37.3072 14 36.5605 14 35.067 14H34.5337C31.5467 14 30.0532 14 28.9124 14.5813C27.9088 15.0926 27.0929 15.9085 26.5816 16.9121C26.0003 18.0529 26.0003 19.5464 26.0003 22.5333" stroke="#43A548" stroke-width="2" stroke-linecap="round" stroke-linejoin="round"/>
</svg>
