<svg width="52" height="52" viewBox="0 0 52 52" fill="none" xmlns="http://www.w3.org/2000/svg">
<rect width="52" height="52" rx="10" fill="#E4FAE5"/>
<path d="M18.1261 24.9721C18.0433 24.438 18.0003 23.8908 18.0003 23.3337C18.0003 17.4426 22.8073 12.667 28.7371 12.667C34.6669 12.667 39.474 17.4426 39.474 23.3337C39.474 24.6644 39.2287 25.9383 38.7805 27.113C38.6875 27.357 38.6409 27.479 38.6198 27.5742C38.5989 27.6686 38.5908 27.735 38.5885 27.8316C38.5862 27.9291 38.5994 28.0366 38.6259 28.2514L39.1627 32.6117C39.2208 33.0837 39.2498 33.3197 39.1713 33.4913C39.1025 33.6416 38.9803 33.761 38.8284 33.8263C38.6551 33.9009 38.4198 33.8664 37.9493 33.7974L33.7023 33.1749C33.4805 33.1424 33.3696 33.1261 33.2686 33.1267C33.1687 33.1273 33.0996 33.1346 33.0019 33.1552C32.903 33.176 32.7768 33.2232 32.5243 33.3178C31.3466 33.759 30.0702 34.0003 28.7371 34.0003C28.1795 34.0003 27.6319 33.9581 27.0972 33.8767M20.1758 39.3337C24.129 39.3337 27.3337 36.0504 27.3337 32.0003C27.3337 27.9502 24.129 24.667 20.1758 24.667C16.2226 24.667 13.0179 27.9502 13.0179 32.0003C13.0179 32.8144 13.1474 33.5976 13.3864 34.3293C13.4874 34.6386 13.538 34.7933 13.5545 34.8989C13.5718 35.0092 13.5749 35.0712 13.5684 35.1826C13.5623 35.2894 13.5355 35.4101 13.4821 35.6514L12.667 39.3337L16.6601 38.7883C16.878 38.7586 16.987 38.7437 17.0822 38.7443C17.1824 38.745 17.2355 38.7504 17.3338 38.77C17.4271 38.7886 17.5659 38.8376 17.8434 38.9355C18.5744 39.1936 19.3591 39.3337 20.1758 39.3337Z" stroke="#43A548" stroke-width="2" stroke-linecap="round" stroke-linejoin="round"/>
</svg>
