<svg width="32" height="32" viewBox="0 0 32 32" fill="none" xmlns="http://www.w3.org/2000/svg">
<path d="M19.3333 9.33366C20.1082 9.33366 20.4957 9.33366 20.8136 9.41884C21.6764 9.65001 22.3502 10.3239 22.5814 11.1866C22.6666 11.5045 22.6666 11.892 22.6666 12.667V20.3337C22.6666 21.7338 22.6666 22.4339 22.3941 22.9686C22.1544 23.439 21.772 23.8215 21.3016 24.0612C20.7668 24.3337 20.0667 24.3337 18.6666 24.3337H13.3333C11.9331 24.3337 11.2331 24.3337 10.6983 24.0612C10.2279 23.8215 9.84542 23.439 9.60574 22.9686C9.33325 22.4339 9.33325 21.7338 9.33325 20.3337V12.667C9.33325 11.892 9.33325 11.5045 9.41844 11.1866C9.64961 10.3239 10.3235 9.65001 11.1862 9.41884C11.5041 9.33366 11.8916 9.33366 12.6666 9.33366M13.4999 18.5003L15.1666 20.167L18.9166 16.417M13.9999 11.0003H17.9999C18.4666 11.0003 18.7 11.0003 18.8782 10.9095C19.035 10.8296 19.1625 10.7021 19.2424 10.5453C19.3333 10.3671 19.3333 10.1337 19.3333 9.66699V9.00033C19.3333 8.53362 19.3333 8.30026 19.2424 8.122C19.1625 7.9652 19.035 7.83771 18.8782 7.75782C18.7 7.66699 18.4666 7.66699 17.9999 7.66699H13.9999C13.5332 7.66699 13.2999 7.66699 13.1216 7.75782C12.9648 7.83771 12.8373 7.9652 12.7574 8.122C12.6666 8.30026 12.6666 8.53362 12.6666 9.00033V9.66699C12.6666 10.1337 12.6666 10.3671 12.7574 10.5453C12.8373 10.7021 12.9648 10.8296 13.1216 10.9095C13.2999 11.0003 13.5332 11.0003 13.9999 11.0003Z" stroke="#43A548" stroke-width="2" stroke-linecap="round" stroke-linejoin="round"/>
</svg>
