<svg width="32" height="32" viewBox="0 0 32 32" fill="none" xmlns="http://www.w3.org/2000/svg">
<g clip-path="url(#clip0_110_1159)">
<path d="M15.5834 10.167H15.9454C18.4848 10.167 19.7545 10.167 20.2364 10.6231C20.6531 11.0173 20.8377 11.5981 20.7252 12.1605C20.5951 12.8112 19.5585 13.5444 17.4853 15.0108L14.0982 17.4065C12.025 18.8729 10.9884 19.6061 10.8583 20.2568C10.7458 20.8193 10.9304 21.4 11.3471 21.7943C11.829 22.2503 13.0987 22.2503 15.6381 22.2503H16.4167M12.6667 10.167C12.6667 11.5477 11.5475 12.667 10.1667 12.667C8.78604 12.667 7.66675 11.5477 7.66675 10.167C7.66675 8.78628 8.78604 7.66699 10.1667 7.66699C11.5475 7.66699 12.6667 8.78628 12.6667 10.167ZM24.3334 21.8337C24.3334 23.2144 23.2141 24.3337 21.8334 24.3337C20.4527 24.3337 19.3334 23.2144 19.3334 21.8337C19.3334 20.4529 20.4527 19.3337 21.8334 19.3337C23.2141 19.3337 24.3334 20.4529 24.3334 21.8337Z" stroke="#43A548" stroke-width="2" stroke-linecap="round" stroke-linejoin="round"/>
</g>
<defs>
<clipPath id="clip0_110_1159">
<rect width="20" height="20" fill="white" transform="translate(6 6)"/>
</clipPath>
</defs>
</svg>
