<svg width="32" height="32" viewBox="0 0 32 32" fill="none" xmlns="http://www.w3.org/2000/svg">
<g clip-path="url(#clip0_110_1154)">
<path d="M15.1667 9.3332H11.6667C10.2666 9.3332 9.56655 9.3332 9.03177 9.60568C8.56137 9.84536 8.17892 10.2278 7.93923 10.6982C7.66675 11.233 7.66675 11.9331 7.66675 13.3332V20.3332C7.66675 21.7333 7.66675 22.4334 7.93923 22.9682C8.17892 23.4386 8.56137 23.821 9.03177 24.0607C9.56655 24.3332 10.2666 24.3332 11.6667 24.3332H18.6667C20.0669 24.3332 20.7669 24.3332 21.3017 24.0607C21.7721 23.821 22.1546 23.4386 22.3943 22.9682C22.6667 22.4334 22.6667 21.7333 22.6667 20.3332V16.8332M12.6667 19.3332H14.0622C14.4698 19.3332 14.6737 19.3332 14.8655 19.2871C15.0355 19.2463 15.1981 19.179 15.3472 19.0876C15.5154 18.9845 15.6595 18.8404 15.9478 18.5521L23.9167 10.5832C24.6071 9.89284 24.6071 8.77355 23.9167 8.0832C23.2264 7.39284 22.1071 7.39284 21.4167 8.0832L13.4478 16.0521C13.1595 16.3404 13.0154 16.4845 12.9123 16.6527C12.8209 16.8018 12.7536 16.9644 12.7128 17.1345C12.6667 17.3263 12.6667 17.5301 12.6667 17.9378V19.3332Z" stroke="#43A548" stroke-width="2" stroke-linecap="round" stroke-linejoin="round"/>
</g>
<defs>
<clipPath id="clip0_110_1154">
<rect width="20" height="20" fill="white" transform="translate(6 6)"/>
</clipPath>
</defs>
</svg>
