<svg width="32" height="32" viewBox="0 0 32 32" fill="none" xmlns="http://www.w3.org/2000/svg">
<path d="M18.5 23.5V19C18.5 18.5333 18.5 18.2999 18.4092 18.1217C18.3293 17.9649 18.2018 17.8374 18.045 17.7575C17.8667 17.6667 17.6334 17.6667 17.1667 17.6667H14.8333C14.3666 17.6667 14.1333 17.6667 13.955 17.7575C13.7982 17.8374 13.6707 17.9649 13.5908 18.1217C13.5 18.2999 13.5 18.5333 13.5 19V23.5M8.5 11.8333C8.5 13.214 9.61929 14.3333 11 14.3333C12.3807 14.3333 13.5 13.214 13.5 11.8333C13.5 13.214 14.6193 14.3333 16 14.3333C17.3807 14.3333 18.5 13.214 18.5 11.8333C18.5 13.214 19.6193 14.3333 21 14.3333C22.3807 14.3333 23.5 13.214 23.5 11.8333M11.1667 23.5H20.8333C21.7668 23.5 22.2335 23.5 22.59 23.3183C22.9036 23.1586 23.1586 22.9036 23.3183 22.59C23.5 22.2335 23.5 21.7668 23.5 20.8333V11.1667C23.5 10.2332 23.5 9.76654 23.3183 9.41002C23.1586 9.09641 22.9036 8.84144 22.59 8.68166C22.2335 8.5 21.7668 8.5 20.8333 8.5H11.1667C10.2332 8.5 9.76654 8.5 9.41002 8.68166C9.09641 8.84144 8.84144 9.09641 8.68166 9.41002C8.5 9.76654 8.5 10.2332 8.5 11.1667V20.8333C8.5 21.7668 8.5 22.2335 8.68166 22.59C8.84144 22.9036 9.09641 23.1586 9.41002 23.3183C9.76654 23.5 10.2332 23.5 11.1667 23.5Z" stroke="#43A548" stroke-width="2" stroke-linecap="round" stroke-linejoin="round"/>
</svg>
