<svg width="32" height="32" viewBox="0 0 32 32" fill="none" xmlns="http://www.w3.org/2000/svg">
<path d="M23.5 23.5H9.83333C9.36662 23.5 9.13327 23.5 8.95501 23.4092C8.79821 23.3293 8.67072 23.2018 8.59083 23.045C8.5 22.8667 8.5 22.6334 8.5 22.1667V8.5M23.5 11.8333L18.9714 16.3619C18.8064 16.5269 18.7239 16.6094 18.6288 16.6404C18.5451 16.6675 18.4549 16.6675 18.3712 16.6404C18.2761 16.6094 18.1936 16.5269 18.0286 16.3619L16.4714 14.8047C16.3064 14.6397 16.2239 14.5572 16.1288 14.5263C16.0451 14.4991 15.9549 14.4991 15.8712 14.5263C15.7761 14.5572 15.6936 14.6397 15.5286 14.8047L11.8333 18.5M23.5 11.8333H20.1667M23.5 11.8333V15.1667" stroke="#43A548" stroke-width="2" stroke-linecap="round" stroke-linejoin="round"/>
</svg>
